<svg width="84" height="84" viewBox="0 0 84 84" fill="none" xmlns="http://www.w3.org/2000/svg">
<rect width="84" height="84" rx="26" fill="#00BD62"/>
<path d="M28.5666 29.2169C26.8333 27.4835 19.4666 27.0502 17.0833 26.8335C16.8666 26.8335 16.6499 26.8335 16.4333 27.0501C16.2166 27.2669 16 27.7002 16 27.9169V47.4169C16 48.0669 16.4334 48.5002 17.0834 48.5002H23.5834C24.0167 48.5002 24.45 48.2836 24.6667 47.8502C24.6667 47.2002 28.5667 35.7169 29.0001 30.0836C29 29.8669 29 29.4336 28.5666 29.2169Z" fill="white"/>
<path d="M51.7501 34.4166C49.5835 33.7666 47.6335 32.9 45.9001 32.25C42.0001 30.5166 40.2668 31.3833 36.8001 34.85C35.2835 36.3666 34.2001 38.5333 34.4168 39.4C34.4168 39.6166 34.4168 39.6166 34.8501 39.8333C35.9335 40.2667 37.4501 40.4833 38.9668 38.1C39.1834 37.8833 39.4001 37.6666 39.8334 37.6666C40.4834 37.6666 40.7 37.45 41.35 37.2332C41.7834 37.0166 42.2167 36.7999 42.8667 36.5832C43.0833 36.5832 43.0833 36.5832 43.3 36.5832C43.5167 36.5832 43.95 36.7999 44.1667 36.7999C45.2501 37.8833 47.2001 39.4 49.1501 41.1333C52.1835 43.5167 55.2168 46.1167 56.7335 48.0667H56.9501C55.4335 43.7333 52.8335 36.3666 51.7501 34.4166Z" fill="white"/>
<path d="M66.9168 29C58.4669 29 53.7002 31.1666 53.4835 31.1666C53.2669 31.3833 53.0501 31.6 52.8335 31.8166C52.8335 32.0333 52.8335 32.4666 53.0501 32.6833C54.3501 34.8499 58.6835 46.7666 59.3335 49.7999C59.5501 50.2333 59.9835 50.6665 60.4169 50.6665H66.9168C67.5668 50.6665 68.0002 50.2332 68.0002 49.5832V30.0832C68.0002 29.4334 67.5668 29 66.9168 29Z" fill="white"/>
<path d="M55.2165 50.2335C54.3499 48.2835 50.6665 45.4669 47.4165 42.8669C45.6832 41.3501 43.9499 40.0501 42.6499 38.9668C42.4332 39.1834 41.9999 39.1834 41.9999 39.4001C41.3499 39.6168 41.1332 39.8335 40.2665 39.8335C38.5332 42.0001 36.3665 42.8668 33.9832 42.0001C32.8999 41.7835 32.2499 40.9168 32.0332 40.0501C31.5999 37.8835 33.5499 34.8501 35.0666 33.3335H30.7332C29.8666 37.6669 28.3499 43.3001 27.2666 46.3335C28.1332 47.2001 29 48.2835 29.65 48.7169C33.7666 52.1835 38.5333 55.6502 39.4 56.3002C40.05 56.7336 41.35 57.1669 42 57.1669C42.2166 57.1669 42.4333 57.1669 42.65 57.1669L39.1832 53.7001C38.7499 53.2668 38.7499 52.6168 39.1832 52.1835C39.6166 51.7502 40.2666 51.7501 40.6999 52.1835L45.0332 56.5169C45.4666 56.9502 45.8999 56.7335 46.3332 56.7335C46.9832 56.5169 47.1999 56.0835 47.4166 55.4335L42.4332 50.4501C41.9999 50.0168 41.9999 49.3668 42.4332 48.9335C42.8666 48.5002 43.5166 48.5001 43.9499 48.9335L49.3665 54.3501C49.5831 54.5668 50.4499 54.5668 51.0999 54.3501C51.3165 54.1335 51.7499 53.9167 51.9665 53.4835L45.8999 47.4168C45.4665 46.9834 45.4665 46.3334 45.8999 45.9001C46.3332 45.4669 46.9832 45.4668 47.4165 45.9001L53.6999 52.1835C54.1332 52.4001 54.5665 52.1835 54.9999 51.9669C55.2165 51.7501 55.6499 51.1001 55.2165 50.2335Z" fill="white"/>
</svg>
