<svg width="28" height="28" viewBox="0 0 28 28" fill="none" xmlns="http://www.w3.org/2000/svg">
<path d="M3.03392 1.25537C2.97087 1.32277 2.86433 1.46356 2.79313 1.56031C1.46955 3.31548 -0.112217 6.01372 0.00627927 8.61793C0.207397 12.9784 6.09201 18.7739 7.8912 20.4464C9.69094 22.1184 15.9006 27.5643 20.26 27.4458C20.9867 27.4279 21.7569 27.2752 22.5484 26.9914C24.3753 26.3364 26.0245 25.0906 27.0719 24.1736C27.0719 24.1736 27.2975 23.9817 27.3844 23.8893C27.6035 23.6529 27.7769 23.3077 27.9144 22.8343C27.9845 22.5924 27.9998 22.3374 27.9998 22.1668C27.9998 21.9765 27.9807 21.608 27.8557 21.2726C27.6845 20.8138 27.4883 20.4855 27.2534 20.2648C27.0795 20.1034 23.149 17.0241 23.124 17.0067L23.0941 16.9872C22.881 16.8235 22.6587 16.6958 22.4326 16.6072C21.8401 16.3751 21.184 16.3659 20.5845 16.58C20.2034 16.7165 19.8604 16.942 19.5957 17.228L18.245 18.6738C18.1183 18.8097 17.883 18.9505 17.7998 18.9706C17.7123 18.9869 17.6514 18.9913 17.6123 18.9924L8.54674 10.5677C8.52499 10.547 8.51412 10.5269 8.50814 10.5128C8.51249 10.4997 8.51793 10.4883 8.52064 10.4796C8.5538 10.4122 8.71035 10.1981 8.90603 9.98607L10.2427 8.53911C10.9498 7.77867 11.1254 6.59587 10.6753 5.67345C10.515 5.34459 10.2954 5.0989 10.1937 4.98312L10.141 4.9179C10.1149 4.888 6.8057 1.25646 6.65731 1.12002C6.28932 0.778124 5.70988 0.593311 4.88638 0.554176C4.4287 0.532433 3.8547 0.667236 3.5215 0.874334C3.30734 1.00859 3.14698 1.13361 3.03392 1.25537ZM5.53051 2.30064C5.71586 2.48872 8.72774 5.7876 8.88538 5.96045L8.99626 6.09471C9.04138 6.14526 9.14737 6.2643 9.20934 6.39041C9.37023 6.72089 9.30718 7.1514 9.04627 7.43242L7.70802 8.88101C7.55147 9.05006 7.17098 9.48274 7.01987 9.84312C6.91985 10.0834 6.87256 10.2926 6.87202 10.5356C6.88833 10.9998 7.0851 11.4325 7.43189 11.7592L16.5887 20.2686C16.9372 20.5921 17.4438 20.6953 18.095 20.5752C18.5983 20.4823 19.1435 20.1018 19.437 19.7876L20.7899 18.339C20.8802 18.2417 20.9998 18.1645 21.1346 18.1156C21.3596 18.0351 21.6162 18.039 21.8379 18.1259C21.9673 18.1765 22.0749 18.2607 22.1103 18.2885C22.144 18.3145 22.1711 18.3336 22.1956 18.3488C22.5723 18.6407 25.9522 21.2971 26.1353 21.4514C26.1359 21.4525 26.2158 21.5422 26.3283 21.8428C26.3441 21.8852 26.3691 22.0102 26.3691 22.1662C26.3691 22.2787 26.3566 22.3521 26.3484 22.3788C26.2636 22.6701 26.1935 22.7723 26.1935 22.7745C26.1408 22.8272 26.031 22.918 26.0125 22.9337C25.0564 23.7703 23.5844 24.8873 21.9977 25.4559C21.3705 25.6809 20.7725 25.8016 20.2181 25.8152C17.2399 25.8962 12.3142 22.3293 9.0017 19.2511C5.68868 16.1734 1.77231 11.5211 1.63534 8.54292C1.53532 6.39585 2.93173 4.08516 4.08137 2.55992L4.1254 2.50122C4.15094 2.46643 4.19715 2.4012 4.22106 2.37294C4.26183 2.33434 4.32271 2.29684 4.37109 2.2664C4.44338 2.22944 4.66787 2.17725 4.80811 2.18432C5.28971 2.20769 5.51257 2.29412 5.53051 2.30064Z" fill="#3E89F4"/>
</svg>
