<svg width="84" height="84" viewBox="0 0 84 84" fill="none" xmlns="http://www.w3.org/2000/svg">
<rect width="84" height="84" rx="26" fill="#3E89F4"/>
<g clip-path="url(#clip0_70_3964)">
<path d="M64.0574 19.006C55.0779 18.845 44.8371 23.5389 38.3549 30.8203C32.1603 30.9372 26.1285 33.4768 21.6876 37.9177C21.4289 38.1726 21.3369 38.5541 21.4499 38.8991C21.5649 39.246 21.8639 39.4971 22.2243 39.5488L29.6111 40.6068L28.6988 41.6284C28.3595 42.0079 28.3768 42.5848 28.7371 42.9451L41.0555 55.2635C41.2414 55.4495 41.4868 55.5434 41.734 55.5434C41.9621 55.5434 42.1902 55.4629 42.3723 55.3L43.3939 54.3876L44.4519 61.7745C44.5036 62.1348 44.7873 62.3993 45.1304 62.5143C45.2185 62.543 45.3105 62.5565 45.4044 62.5565C45.6766 62.5565 45.9545 62.4376 46.1462 62.2479C50.5258 57.8683 53.0654 51.8366 53.1823 45.6419C60.4714 39.1463 65.2036 28.9094 64.9947 19.9413C64.9813 19.4315 64.5692 19.0194 64.0574 19.006ZM55.2254 35.5506C54.292 36.4841 53.0654 36.9517 51.8368 36.9517C50.6082 36.9517 49.3815 36.4841 48.4481 35.5506C46.5813 33.6819 46.5813 30.6421 48.4481 28.7733C50.3169 26.9046 53.3567 26.9046 55.2254 28.7733C57.0942 30.6421 57.0942 33.6838 55.2254 35.5506Z" fill="white"/>
<path d="M24.2211 51.4014C22.1703 53.4522 19.3547 62.7174 19.0404 63.7658C18.9388 64.1031 19.0327 64.4692 19.2799 64.7184C19.4639 64.9024 19.7074 65.0001 19.9584 65.0001C20.0504 65.0001 20.1424 64.9867 20.2344 64.9599C21.2829 64.6456 30.548 61.83 32.5989 59.7791C34.9084 57.4696 34.9084 53.711 32.5989 51.4014C30.2874 49.0918 26.5307 49.0937 24.2211 51.4014Z" fill="white"/>
</g>
<defs>
<clipPath id="clip0_70_3964">
<rect width="46" height="46" fill="white" transform="translate(19 19)"/>
</clipPath>
</defs>
</svg>
