<svg width="52" height="42" viewBox="0 0 52 42" fill="none" xmlns="http://www.w3.org/2000/svg">
<path d="M51.0636 18.508L45.06 7.49214H49.4112C50.1823 7.49214 50.8433 6.83119 50.8433 6.06009C50.8433 5.28898 50.1823 4.62803 49.4112 4.62803H30.9597C30.1886 1.87407 27.2694 0.276774 24.5155 1.04788C22.7529 1.54359 21.431 2.92057 20.9353 4.62803H2.53887C1.76777 4.62803 1.10682 5.28898 1.10682 6.06009C1.10682 6.83119 1.76777 7.49214 2.53887 7.49214H6.89013L0.8865 18.508C0.335708 18.7283 -0.0498462 19.2791 0.00523296 19.885C0.00523296 25.0073 4.19125 29.1933 9.31361 29.1933C14.436 29.1933 18.622 25.0073 18.622 19.885C18.622 19.2791 18.2364 18.7834 17.7407 18.5631L11.682 7.43706H21.0455C21.5412 9.14452 22.8631 10.5215 24.6256 11.0172V31.727C20.7701 32.3879 17.961 35.8028 17.961 39.7134C17.961 40.4846 18.622 41.1455 19.3931 41.1455H32.7773C33.5484 41.1455 34.2094 40.4846 34.2094 39.7134C34.2094 35.8028 31.4004 32.443 27.5448 31.727V11.0723C29.2523 10.5766 30.6292 9.25468 31.125 7.49214H40.4884L34.3195 18.508C33.7137 18.7283 33.3281 19.2791 33.3832 19.885C33.3832 25.0073 37.5692 29.1933 42.6916 29.1933C47.8139 29.1933 52 25.0073 52 19.885C52 19.2791 51.6695 18.7283 51.0636 18.508ZM14.436 18.3978H4.19125L9.31361 8.97928L14.436 18.3978ZM37.6243 18.3978L42.7467 8.97928L47.869 18.3978H37.6243Z" fill="#3E89F4"/>
</svg>
