<svg width="45" height="52" viewBox="0 0 45 52" fill="none" xmlns="http://www.w3.org/2000/svg">
<path d="M22.1403 16.0933C16.677 16.0933 12.2324 20.5378 12.2324 26.0008C12.2324 31.4641 16.677 35.9087 22.1403 35.9087C27.6033 35.9087 32.0478 31.4641 32.0478 26.0008C32.0478 20.5378 27.6033 16.0933 22.1403 16.0933ZM28.0226 24.1349L20.9247 31.2328C20.6268 31.5308 20.236 31.6799 19.8456 31.6799C19.4553 31.6799 19.0649 31.5312 18.7669 31.2328L16.0545 28.5204C15.4586 27.9249 15.4586 26.9589 16.0545 26.363C16.65 25.7671 17.616 25.7671 18.2119 26.363L19.8456 27.9967L25.8652 21.9775C26.4607 21.3817 27.4267 21.3817 28.0226 21.9775C28.6185 22.573 28.6185 23.5391 28.0226 24.1349Z" fill="#3E89F4"/>
<path d="M44.2291 14.1089L44.2276 14.0684C44.2049 13.569 44.1899 13.0405 44.1807 12.4526C44.1383 9.58543 41.8591 7.21379 38.9915 7.05352C33.0129 6.71987 28.3878 4.77035 24.436 0.918523L24.4023 0.886388C23.1133 -0.295463 21.169 -0.295463 19.8796 0.886388L19.8459 0.918523C15.8941 4.77035 11.269 6.71987 5.29034 7.05391C2.42319 7.21379 0.143597 9.58543 0.101147 12.453C0.092419 13.037 0.0769466 13.5654 0.0543331 14.0684L0.0519528 14.1625C-0.0642883 20.259 -0.208697 27.8464 2.32957 34.7332C3.72525 38.5203 5.83902 41.8124 8.61174 44.5185C11.7697 47.6002 15.906 50.0469 20.9055 51.7901C21.0682 51.8468 21.2372 51.8928 21.4094 51.9274C21.6522 51.9758 21.8966 52 22.1409 52C22.3853 52 22.6301 51.9758 22.8725 51.9274C23.0447 51.8928 23.2149 51.8464 23.3783 51.7893C28.3719 50.0429 32.5039 47.5951 35.659 44.5137C38.4306 41.8068 40.5443 38.514 41.9412 34.726C44.489 27.8186 44.345 20.2169 44.2291 14.1089ZM22.1402 38.9599C14.9943 38.9599 9.18105 33.1467 9.18105 26.0008C9.18105 18.855 14.9943 13.0417 22.1402 13.0417C29.2856 13.0417 35.0993 18.855 35.0993 26.0008C35.0993 33.1467 29.2856 38.9599 22.1402 38.9599Z" fill="#3E89F4"/>
</svg>
