<svg width="84" height="84" viewBox="0 0 84 84" fill="none" xmlns="http://www.w3.org/2000/svg">
<rect width="84" height="84" rx="26" fill="#FEC44B"/>
<path d="M46.759 29.2888C48.8859 30.6223 50.3774 32.879 50.6489 35.4985C51.5163 35.9038 52.479 36.1368 53.4997 36.1368C57.226 36.1368 60.2462 33.1167 60.2462 29.391C60.2462 25.6647 57.226 22.6445 53.4997 22.6445C49.809 22.6457 46.8153 25.6119 46.759 29.2888ZM42.3393 43.102C46.0655 43.102 49.0857 40.0812 49.0857 36.3556C49.0857 32.6299 46.065 29.6097 42.3393 29.6097C38.6136 29.6097 35.5917 32.6304 35.5917 36.3561C35.5917 40.0818 38.6136 43.102 42.3393 43.102ZM45.201 43.5618H39.4764C34.7134 43.5618 30.8384 47.4373 30.8384 52.2004V59.2011L30.8562 59.3108L31.3384 59.4618C35.8839 60.882 39.8329 61.3556 43.0833 61.3556C49.4319 61.3556 53.1116 59.5456 53.3384 59.4302L53.789 59.2023H53.8373V52.2004C53.839 47.4373 49.964 43.5618 45.201 43.5618ZM56.3626 36.5972H50.6822C50.6208 38.87 49.6506 40.9165 48.1161 42.3884C52.3499 43.6474 55.4475 47.5734 55.4475 52.2107V54.3681C61.0562 54.1625 64.2882 52.573 64.5011 52.4662L64.9518 52.2377H65V45.2346C65 40.4722 61.125 36.5972 56.3626 36.5972ZM30.5014 36.138C31.8212 36.138 33.0491 35.7528 34.0894 35.0966C34.42 32.9399 35.5762 31.0552 37.2278 29.7716C37.2347 29.6453 37.2467 29.5201 37.2467 29.3927C37.2467 25.6664 34.226 22.6463 30.5014 22.6463C26.7746 22.6463 23.755 25.6664 23.755 29.3927C23.755 33.1172 26.7746 36.138 30.5014 36.138ZM36.5601 42.3884C35.0331 40.924 34.0664 38.8883 33.9958 36.6294C33.7851 36.6139 33.5767 36.5972 33.362 36.5972H27.638C22.875 36.5972 19 40.4722 19 45.2346V52.2365L19.0178 52.3445L19.5 52.4966C23.1465 53.635 26.4009 54.1597 29.2276 54.325V52.2107C29.2287 47.5734 32.3252 43.6485 36.5601 42.3884Z" fill="white"/>
</svg>
