<svg xmlns="http://www.w3.org/2000/svg">

<symbol id="logo" viewBox="0 0 286 20">
<path d="M6.86133 3.03711C6.2819 3.03711 5.76758 3.15104 5.31836 3.37891C4.87565 3.60026 4.5013 3.92253 4.19531 4.3457C3.89583 4.76888 3.66797 5.27995 3.51172 5.87891C3.35547 6.47786 3.27734 7.15169 3.27734 7.90039C3.27734 8.90951 3.40104 9.77214 3.64844 10.4883C3.90234 11.1979 4.29297 11.7415 4.82031 12.1191C5.34766 12.4902 6.02799 12.6758 6.86133 12.6758C7.44076 12.6758 8.02018 12.6107 8.59961 12.4805C9.18555 12.3503 9.82031 12.1647 10.5039 11.9238V14.4629C9.8724 14.7233 9.25065 14.9089 8.63867 15.0195C8.02669 15.1367 7.33984 15.1953 6.57812 15.1953C5.10677 15.1953 3.89583 14.8926 2.94531 14.2871C2.0013 13.6751 1.30143 12.8223 0.845703 11.7285C0.389974 10.6283 0.162109 9.3457 0.162109 7.88086C0.162109 6.80013 0.308594 5.81055 0.601562 4.91211C0.894531 4.01367 1.32422 3.23568 1.89062 2.57812C2.45703 1.92057 3.1569 1.41276 3.99023 1.05469C4.82357 0.696615 5.7806 0.517578 6.86133 0.517578C7.57096 0.517578 8.2806 0.608724 8.99023 0.791016C9.70638 0.966797 10.39 1.21094 11.041 1.52344L10.0645 3.98438C9.5306 3.73047 8.99349 3.50911 8.45312 3.32031C7.91276 3.13151 7.38216 3.03711 6.86133 3.03711ZM23.2383 9.52148C23.2383 10.4329 23.1146 11.2402 22.8672 11.9434C22.6263 12.6465 22.2715 13.2422 21.8027 13.7305C21.3405 14.2122 20.7806 14.5768 20.123 14.8242C19.472 15.0716 18.7363 15.1953 17.916 15.1953C17.1478 15.1953 16.4414 15.0716 15.7969 14.8242C15.1589 14.5768 14.6022 14.2122 14.127 13.7305C13.6582 13.2422 13.2936 12.6465 13.0332 11.9434C12.7793 11.2402 12.6523 10.4329 12.6523 9.52148C12.6523 8.31055 12.8672 7.28516 13.2969 6.44531C13.7266 5.60547 14.3385 4.96745 15.1328 4.53125C15.9271 4.09505 16.8743 3.87695 17.9746 3.87695C18.9967 3.87695 19.9017 4.09505 20.6895 4.53125C21.4837 4.96745 22.1055 5.60547 22.5547 6.44531C23.0104 7.28516 23.2383 8.31055 23.2383 9.52148ZM15.6895 9.52148C15.6895 10.2376 15.7676 10.8398 15.9238 11.3281C16.0801 11.8164 16.3242 12.1842 16.6562 12.4316C16.9883 12.679 17.4212 12.8027 17.9551 12.8027C18.4824 12.8027 18.9089 12.679 19.2344 12.4316C19.5664 12.1842 19.8073 11.8164 19.957 11.3281C20.1133 10.8398 20.1914 10.2376 20.1914 9.52148C20.1914 8.79883 20.1133 8.19987 19.957 7.72461C19.8073 7.24284 19.5664 6.88151 19.2344 6.64062C18.9023 6.39974 18.4694 6.2793 17.9355 6.2793C17.1478 6.2793 16.5749 6.54948 16.2168 7.08984C15.8652 7.63021 15.6895 8.44076 15.6895 9.52148ZM37.6133 18.916H34.9375V15H25.6992V4.08203H28.6777V12.7637H33.0332V4.08203H36.0215V12.8223H37.6133V18.916ZM42.3496 4.08203V8.39844C42.3496 8.61979 42.3398 8.89974 42.3203 9.23828C42.3073 9.57031 42.2878 9.90885 42.2617 10.2539C42.2357 10.599 42.2096 10.9082 42.1836 11.1816C42.1576 11.4551 42.138 11.6406 42.125 11.7383L47.1641 4.08203H50.748V15H47.8672V10.6445C47.8672 10.2865 47.8802 9.89258 47.9062 9.46289C47.9323 9.02669 47.9616 8.61654 47.9941 8.23242C48.0267 7.84831 48.0495 7.55859 48.0625 7.36328L43.043 15H39.4688V4.08203H42.3496ZM58.3555 3.85742C59.8203 3.85742 60.9434 4.17643 61.7246 4.81445C62.5059 5.45247 62.8965 6.42253 62.8965 7.72461V15H60.8164L60.2402 13.5156H60.1621C59.8496 13.9062 59.5306 14.2253 59.2051 14.4727C58.8796 14.7201 58.5052 14.9023 58.082 15.0195C57.6589 15.1367 57.1445 15.1953 56.5391 15.1953C55.8945 15.1953 55.3151 15.0716 54.8008 14.8242C54.293 14.5768 53.8926 14.1992 53.5996 13.6914C53.3066 13.1771 53.1602 12.526 53.1602 11.7383C53.1602 10.5794 53.5671 9.72656 54.3809 9.17969C55.1947 8.6263 56.4154 8.32031 58.043 8.26172L59.9375 8.20312V7.72461C59.9375 7.15169 59.7878 6.73177 59.4883 6.46484C59.1888 6.19792 58.7721 6.06445 58.2383 6.06445C57.7109 6.06445 57.1934 6.13932 56.6855 6.28906C56.1777 6.4388 55.6699 6.6276 55.1621 6.85547L54.1758 4.84375C54.7552 4.53776 55.403 4.29688 56.1191 4.12109C56.8418 3.94531 57.5872 3.85742 58.3555 3.85742ZM59.9375 9.94141L58.7852 9.98047C57.8216 10.0065 57.151 10.179 56.7734 10.498C56.4023 10.8171 56.2168 11.237 56.2168 11.7578C56.2168 12.2135 56.3503 12.5391 56.6172 12.7344C56.8841 12.9232 57.2324 13.0176 57.6621 13.0176C58.3001 13.0176 58.8372 12.8288 59.2734 12.4512C59.7161 12.0736 59.9375 11.5365 59.9375 10.8398V9.94141ZM75.748 15H72.7695V6.31836H70.0254C69.8887 7.91992 69.7259 9.28385 69.5371 10.4102C69.3483 11.5365 69.1074 12.4544 68.8145 13.1641C68.5215 13.8672 68.1569 14.3815 67.7207 14.707C67.2845 15.0326 66.7474 15.1953 66.1094 15.1953C65.7578 15.1953 65.4421 15.1693 65.1621 15.1172C64.8887 15.0651 64.638 14.987 64.4102 14.8828V12.5C64.5534 12.5586 64.7064 12.6074 64.8691 12.6465C65.0319 12.679 65.1979 12.6953 65.3672 12.6953C65.556 12.6953 65.735 12.6204 65.9043 12.4707C66.0736 12.321 66.2331 12.0638 66.3828 11.6992C66.5326 11.3281 66.6725 10.8171 66.8027 10.166C66.9395 9.51497 67.0632 8.69141 67.1738 7.69531C67.2845 6.69922 67.3887 5.49479 67.4863 4.08203H75.748V15ZM81.8613 8.30078H83.9609C85.0807 8.30078 86.0052 8.41797 86.7344 8.65234C87.4635 8.88672 88.0072 9.24479 88.3652 9.72656C88.7233 10.2018 88.9023 10.8008 88.9023 11.5234C88.9023 12.2266 88.7396 12.8385 88.4141 13.3594C88.0885 13.8802 87.571 14.2839 86.8613 14.5703C86.1517 14.8568 85.224 15 84.0781 15H78.8828V4.08203H81.8613V8.30078ZM85.9238 11.5625C85.9238 11.1393 85.7546 10.8333 85.416 10.6445C85.0775 10.4557 84.5729 10.3613 83.9023 10.3613H81.8613V12.9395H83.9414C84.5208 12.9395 84.9961 12.8353 85.3672 12.627C85.7383 12.4121 85.9238 12.0573 85.9238 11.5625ZM94.1465 4.08203V8.28125H98.3066V4.08203H101.285V15H98.3066V10.498H94.1465V15H91.168V4.08203H94.1465ZM114.332 9.52148C114.332 10.4329 114.208 11.2402 113.961 11.9434C113.72 12.6465 113.365 13.2422 112.896 13.7305C112.434 14.2122 111.874 14.5768 111.217 14.8242C110.566 15.0716 109.83 15.1953 109.01 15.1953C108.242 15.1953 107.535 15.0716 106.891 14.8242C106.253 14.5768 105.696 14.2122 105.221 13.7305C104.752 13.2422 104.387 12.6465 104.127 11.9434C103.873 11.2402 103.746 10.4329 103.746 9.52148C103.746 8.31055 103.961 7.28516 104.391 6.44531C104.82 5.60547 105.432 4.96745 106.227 4.53125C107.021 4.09505 107.968 3.87695 109.068 3.87695C110.09 3.87695 110.995 4.09505 111.783 4.53125C112.577 4.96745 113.199 5.60547 113.648 6.44531C114.104 7.28516 114.332 8.31055 114.332 9.52148ZM106.783 9.52148C106.783 10.2376 106.861 10.8398 107.018 11.3281C107.174 11.8164 107.418 12.1842 107.75 12.4316C108.082 12.679 108.515 12.8027 109.049 12.8027C109.576 12.8027 110.003 12.679 110.328 12.4316C110.66 12.1842 110.901 11.8164 111.051 11.3281C111.207 10.8398 111.285 10.2376 111.285 9.52148C111.285 8.79883 111.207 8.19987 111.051 7.72461C110.901 7.24284 110.66 6.88151 110.328 6.64062C109.996 6.39974 109.563 6.2793 109.029 6.2793C108.242 6.2793 107.669 6.54948 107.311 7.08984C106.959 7.63021 106.783 8.44076 106.783 9.52148ZM115.826 10.8594V8.41797H121.07V10.8594H115.826ZM135.113 15H131.676L126.5 7.76367V15H123.473V0.722656H126.5V7.63672L131.617 0.722656H134.84L129.635 7.57812L135.113 15ZM142.75 3.87695C143.98 3.87695 144.973 4.35547 145.729 5.3125C146.49 6.26953 146.871 7.67253 146.871 9.52148C146.871 10.7585 146.692 11.8001 146.334 12.6465C145.976 13.4863 145.481 14.1211 144.85 14.5508C144.218 14.9805 143.492 15.1953 142.672 15.1953C142.145 15.1953 141.692 15.1302 141.314 15C140.937 14.8633 140.615 14.6908 140.348 14.4824C140.081 14.2676 139.85 14.0397 139.654 13.7988H139.498C139.55 14.0592 139.589 14.3262 139.615 14.5996C139.641 14.873 139.654 15.14 139.654 15.4004V19.8047H136.676V4.08203H139.098L139.518 5.49805H139.654C139.85 5.20508 140.087 4.9349 140.367 4.6875C140.647 4.4401 140.982 4.24479 141.373 4.10156C141.77 3.95182 142.229 3.87695 142.75 3.87695ZM141.793 6.25977C141.272 6.25977 140.859 6.36719 140.553 6.58203C140.247 6.79688 140.022 7.11914 139.879 7.54883C139.742 7.97852 139.667 8.52214 139.654 9.17969V9.50195C139.654 10.2051 139.719 10.8008 139.85 11.2891C139.986 11.7773 140.211 12.1484 140.523 12.4023C140.842 12.6562 141.279 12.7832 141.832 12.7832C142.288 12.7832 142.662 12.6562 142.955 12.4023C143.248 12.1484 143.466 11.7773 143.609 11.2891C143.759 10.7943 143.834 10.1921 143.834 9.48242C143.834 8.41471 143.668 7.61068 143.336 7.07031C143.004 6.52995 142.49 6.25977 141.793 6.25977ZM153.834 3.87695C154.843 3.87695 155.712 4.07227 156.441 4.46289C157.171 4.84701 157.734 5.4069 158.131 6.14258C158.528 6.87826 158.727 7.77669 158.727 8.83789V10.2832H151.686C151.718 11.123 151.969 11.7839 152.438 12.2656C152.913 12.7409 153.57 12.9785 154.41 12.9785C155.107 12.9785 155.745 12.9069 156.324 12.7637C156.904 12.6204 157.499 12.4056 158.111 12.1191V14.4238C157.571 14.6908 157.005 14.8861 156.412 15.0098C155.826 15.1335 155.113 15.1953 154.273 15.1953C153.18 15.1953 152.21 14.9935 151.363 14.5898C150.523 14.1862 149.863 13.571 149.381 12.7441C148.906 11.9173 148.668 10.8757 148.668 9.61914C148.668 8.3431 148.883 7.2819 149.312 6.43555C149.749 5.58268 150.354 4.94466 151.129 4.52148C151.904 4.0918 152.805 3.87695 153.834 3.87695ZM153.854 5.99609C153.274 5.99609 152.792 6.18164 152.408 6.55273C152.031 6.92383 151.812 7.50651 151.754 8.30078H155.934C155.927 7.85807 155.846 7.46419 155.689 7.11914C155.54 6.77409 155.312 6.50065 155.006 6.29883C154.706 6.09701 154.322 5.99609 153.854 5.99609ZM170.963 4.08203V12.8223H172.564V18.916H169.889V15H162.545V18.916H159.869V12.8223H160.787C161.269 12.0866 161.673 11.2467 161.998 10.3027C162.33 9.35872 162.597 8.35938 162.799 7.30469C163.007 6.24349 163.157 5.16927 163.248 4.08203H170.963ZM167.984 6.31836H165.748C165.644 7.12565 165.51 7.9069 165.348 8.66211C165.191 9.41081 164.996 10.1335 164.762 10.8301C164.527 11.5202 164.241 12.1842 163.902 12.8223H167.984V6.31836ZM177.311 4.08203V8.39844C177.311 8.61979 177.301 8.89974 177.281 9.23828C177.268 9.57031 177.249 9.90885 177.223 10.2539C177.197 10.599 177.171 10.9082 177.145 11.1816C177.118 11.4551 177.099 11.6406 177.086 11.7383L182.125 4.08203H185.709V15H182.828V10.6445C182.828 10.2865 182.841 9.89258 182.867 9.46289C182.893 9.02669 182.923 8.61654 182.955 8.23242C182.988 7.84831 183.01 7.55859 183.023 7.36328L178.004 15H174.43V4.08203H177.311ZM197.877 6.31836H194.303V15H191.324V6.31836H187.74V4.08203H197.877V6.31836ZM202.896 4.08203V8.28125H207.057V4.08203H210.035V15H207.057V10.498H202.896V15H199.918V4.08203H202.896ZM217.633 3.85742C219.098 3.85742 220.221 4.17643 221.002 4.81445C221.783 5.45247 222.174 6.42253 222.174 7.72461V15H220.094L219.518 13.5156H219.439C219.127 13.9062 218.808 14.2253 218.482 14.4727C218.157 14.7201 217.783 14.9023 217.359 15.0195C216.936 15.1367 216.422 15.1953 215.816 15.1953C215.172 15.1953 214.592 15.0716 214.078 14.8242C213.57 14.5768 213.17 14.1992 212.877 13.6914C212.584 13.1771 212.438 12.526 212.438 11.7383C212.438 10.5794 212.844 9.72656 213.658 9.17969C214.472 8.6263 215.693 8.32031 217.32 8.26172L219.215 8.20312V7.72461C219.215 7.15169 219.065 6.73177 218.766 6.46484C218.466 6.19792 218.049 6.06445 217.516 6.06445C216.988 6.06445 216.471 6.13932 215.963 6.28906C215.455 6.4388 214.947 6.6276 214.439 6.85547L213.453 4.84375C214.033 4.53776 214.68 4.29688 215.396 4.12109C216.119 3.94531 216.865 3.85742 217.633 3.85742ZM219.215 9.94141L218.062 9.98047C217.099 10.0065 216.428 10.179 216.051 10.498C215.68 10.8171 215.494 11.237 215.494 11.7578C215.494 12.2135 215.628 12.5391 215.895 12.7344C216.161 12.9232 216.51 13.0176 216.939 13.0176C217.577 13.0176 218.115 12.8288 218.551 12.4512C218.993 12.0736 219.215 11.5365 219.215 10.8398V9.94141ZM226.91 15H223.688L226.627 10.6836C226.256 10.5273 225.908 10.3125 225.582 10.0391C225.257 9.75911 224.993 9.40755 224.791 8.98438C224.589 8.5612 224.488 8.05339 224.488 7.46094C224.488 6.3737 224.898 5.54036 225.719 4.96094C226.546 4.375 227.61 4.08203 228.912 4.08203H233.99V15H231.012V10.9375H229.371L226.91 15ZM227.408 7.48047C227.408 7.9362 227.587 8.29427 227.945 8.55469C228.31 8.80859 228.779 8.93555 229.352 8.93555H231.012V6.18164H228.971C228.437 6.18164 228.043 6.31185 227.789 6.57227C227.535 6.82617 227.408 7.12891 227.408 7.48047ZM246.734 15.1953C245.654 15.1953 244.732 15 243.971 14.6094C243.209 14.2122 242.63 13.6003 242.232 12.7734C241.835 11.9466 241.637 10.8887 241.637 9.59961C241.637 8.26497 241.861 7.17773 242.311 6.33789C242.766 5.49154 243.395 4.86979 244.195 4.47266C245.003 4.07552 245.937 3.87695 246.998 3.87695C247.753 3.87695 248.404 3.95182 248.951 4.10156C249.505 4.24479 249.986 4.41732 250.396 4.61914L249.518 6.92383C249.049 6.73503 248.613 6.58203 248.209 6.46484C247.805 6.34115 247.402 6.2793 246.998 6.2793C246.477 6.2793 246.044 6.40299 245.699 6.65039C245.354 6.89128 245.097 7.25586 244.928 7.74414C244.758 8.23242 244.674 8.8444 244.674 9.58008C244.674 10.3027 244.765 10.9017 244.947 11.377C245.13 11.8522 245.393 12.207 245.738 12.4414C246.083 12.6693 246.503 12.7832 246.998 12.7832C247.617 12.7832 248.167 12.7018 248.648 12.5391C249.13 12.3698 249.599 12.1354 250.055 11.8359V14.3848C249.599 14.6712 249.12 14.8763 248.619 15C248.124 15.1302 247.496 15.1953 246.734 15.1953ZM257.096 3.87695C258.105 3.87695 258.974 4.07227 259.703 4.46289C260.432 4.84701 260.995 5.4069 261.393 6.14258C261.79 6.87826 261.988 7.77669 261.988 8.83789V10.2832H254.947C254.98 11.123 255.23 11.7839 255.699 12.2656C256.174 12.7409 256.832 12.9785 257.672 12.9785C258.368 12.9785 259.007 12.9069 259.586 12.7637C260.165 12.6204 260.761 12.4056 261.373 12.1191V14.4238C260.833 14.6908 260.266 14.8861 259.674 15.0098C259.088 15.1335 258.375 15.1953 257.535 15.1953C256.441 15.1953 255.471 14.9935 254.625 14.5898C253.785 14.1862 253.124 13.571 252.643 12.7441C252.167 11.9173 251.93 10.8757 251.93 9.61914C251.93 8.3431 252.145 7.2819 252.574 6.43555C253.01 5.58268 253.616 4.94466 254.391 4.52148C255.165 4.0918 256.067 3.87695 257.096 3.87695ZM257.115 5.99609C256.536 5.99609 256.054 6.18164 255.67 6.55273C255.292 6.92383 255.074 7.50651 255.016 8.30078H259.195C259.189 7.85807 259.107 7.46419 258.951 7.11914C258.801 6.77409 258.574 6.50065 258.268 6.29883C257.968 6.09701 257.584 5.99609 257.115 5.99609ZM273.443 6.31836H269.869V15H266.891V6.31836H263.307V4.08203H273.443V6.31836ZM278.463 8.30078H280.562C281.682 8.30078 282.607 8.41797 283.336 8.65234C284.065 8.88672 284.609 9.24479 284.967 9.72656C285.325 10.2018 285.504 10.8008 285.504 11.5234C285.504 12.2266 285.341 12.8385 285.016 13.3594C284.69 13.8802 284.173 14.2839 283.463 14.5703C282.753 14.8568 281.826 15 280.68 15H275.484V4.08203H278.463V8.30078ZM282.525 11.5625C282.525 11.1393 282.356 10.8333 282.018 10.6445C281.679 10.4557 281.174 10.3613 280.504 10.3613H278.463V12.9395H280.543C281.122 12.9395 281.598 12.8353 281.969 12.627C282.34 12.4121 282.525 12.0573 282.525 11.5625Z"/>
</symbol>

<symbol id="search" viewBox="0 0 28 28">
<path d="M11.4812 0C17.8119 0 22.9624 5.15047 22.9624 11.4812C22.9624 14.2537 21.9745 16.7997 20.3324 18.786L28 26.4537L26.4537 28L18.786 20.3324C16.7997 21.9745 14.2537 22.9624 11.4812 22.9624C5.15047 22.9624 0 17.8119 0 11.4812C0 5.15047 5.15041 0 11.4812 0ZM11.4812 20.7755C16.6061 20.7755 20.7755 16.6061 20.7755 11.4812C20.7755 6.35633 16.6061 2.1869 11.4812 2.1869C6.35633 2.1869 2.1869 6.35633 2.1869 11.4812C2.1869 16.6061 6.35633 20.7755 11.4812 20.7755Z"/>
</symbol>
</svg>