<svg width="84" height="84" viewBox="0 0 84 84" fill="none" xmlns="http://www.w3.org/2000/svg">
<rect width="84" height="84" rx="26" fill="#FF6D43"/>
<g clip-path="url(#clip0_70_3975)">
<path d="M64.8801 36.6457C64.579 35.7142 63.7528 35.0527 62.7754 34.9646L49.4985 33.759L44.2485 21.4708C43.8614 20.5703 42.9798 19.9873 42.0002 19.9873C41.0207 19.9873 40.1391 20.5703 39.752 21.4729L34.502 33.759L21.223 34.9646C20.2473 35.0548 19.4233 35.7142 19.1204 36.6457C18.8175 37.5771 19.0972 38.5988 19.8353 39.2428L29.871 48.0442L26.9117 61.0799C26.6952 62.0384 27.0672 63.0292 27.8625 63.6041C28.2899 63.9129 28.7901 64.0701 29.2944 64.0701C29.7292 64.0701 30.1606 63.9529 30.5477 63.7213L42.0002 56.8765L53.4486 63.7213C54.2863 64.2253 55.3424 64.1793 56.1359 63.6041C56.9315 63.0274 57.3032 62.0363 57.0867 61.0799L54.1274 48.0442L64.1631 39.2445C64.9012 38.5988 65.183 37.5789 64.8801 36.6457Z" fill="white"/>
</g>
<defs>
<clipPath id="clip0_70_3975">
<rect width="46" height="46" fill="white" transform="translate(19 19)"/>
</clipPath>
</defs>
</svg>
