<svg width="73" height="72" viewBox="0 0 73 72" fill="none" xmlns="http://www.w3.org/2000/svg">
<g clip-path="url(#clip0_2346_58)">
<path d="M36.5004 0.237549C26.1216 0.237549 17.6777 8.6814 17.6777 19.0602C17.6777 29.439 26.1216 37.8829 36.5004 37.8829C46.8792 37.8829 55.3231 29.439 55.3231 19.0602C55.3231 8.6814 46.8792 0.237549 36.5004 0.237549ZM36.5004 33.7001C28.428 33.7001 21.8606 27.1326 21.8606 19.0602C21.8606 10.9878 28.428 4.42037 36.5004 4.42037C44.5728 4.42037 51.1403 10.9878 51.1403 19.0602C51.1403 27.1326 44.5728 33.7001 36.5004 33.7001Z" fill="#717171"/>
<path d="M59.9191 50.1796C54.7658 44.9472 47.9343 42.0657 40.6828 42.0657H32.3172C25.0659 42.0657 18.2342 44.9472 13.081 50.1796C7.953 55.3864 5.12891 62.2593 5.12891 69.5328C5.12891 70.6879 6.0653 71.6242 7.22031 71.6242H65.7798C66.9348 71.6242 67.8712 70.6879 67.8712 69.5328C67.8712 62.2593 65.0471 55.3864 59.9191 50.1796ZM9.40375 67.4414C10.4515 55.5781 20.328 46.2485 32.3172 46.2485H40.6828C52.6721 46.2485 62.5485 55.5781 63.5963 67.4414H9.40375Z" fill="#717171"/>
</g>
<defs>
<clipPath id="clip0_2346_58">
<rect width="71.3867" height="71.3867" fill="white" transform="translate(0.806641 0.237549)"/>
</clipPath>
</defs>
</svg>
