<svg width="40" height="52" viewBox="0 0 40 52" fill="none" xmlns="http://www.w3.org/2000/svg">
<path d="M4.57031 52H35.0391C37.5592 52 39.6094 49.9499 39.6094 47.4297V15.2344H28.9453C26.4251 15.2344 24.375 13.1842 24.375 10.6641V0H4.57031C2.05014 0 0 2.05014 0 4.57031V47.4297C0 49.9499 2.05014 52 4.57031 52ZM10.6641 21.4297H28.9453C29.7874 21.4297 30.4688 22.1111 30.4688 22.9531C30.4688 23.7952 29.7874 24.4766 28.9453 24.4766H10.6641C9.82201 24.4766 9.14062 23.7952 9.14062 22.9531C9.14062 22.1111 9.82201 21.4297 10.6641 21.4297ZM10.6641 27.5234H28.9453C29.7874 27.5234 30.4688 28.2048 30.4688 29.0469C30.4688 29.8889 29.7874 30.5703 28.9453 30.5703H10.6641C9.82201 30.5703 9.14062 29.8889 9.14062 29.0469C9.14062 28.2048 9.82201 27.5234 10.6641 27.5234ZM10.6641 33.6172H28.9453C29.7874 33.6172 30.4688 34.2986 30.4688 35.1406C30.4688 35.9827 29.7874 36.6641 28.9453 36.6641H10.6641C9.82201 36.6641 9.14062 35.9827 9.14062 35.1406C9.14062 34.2986 9.82201 33.6172 10.6641 33.6172ZM10.6641 39.7109H22.8516C23.6936 39.7109 24.375 40.3923 24.375 41.2344C24.375 42.0764 23.6936 42.7578 22.8516 42.7578H10.6641C9.82201 42.7578 9.14062 42.0764 9.14062 41.2344C9.14062 40.3923 9.82201 39.7109 10.6641 39.7109Z" fill="#3E89F4"/>
<path d="M28.9453 12.1874H38.7167L27.4219 0.892578V10.664C27.4219 11.5045 28.1048 12.1874 28.9453 12.1874Z" fill="#3E89F4"/>
</svg>
