<svg width="132" height="35" viewBox="0 0 132 35" fill="none" xmlns="http://www.w3.org/2000/svg">
<path d="M6.28906 2.42969C5.82552 2.42969 5.41406 2.52083 5.05469 2.70312C4.70052 2.88021 4.40104 3.13802 4.15625 3.47656C3.91667 3.8151 3.73438 4.22396 3.60938 4.70312C3.48438 5.18229 3.42188 5.72135 3.42188 6.32031C3.42188 7.1276 3.52083 7.81771 3.71875 8.39062C3.92188 8.95833 4.23438 9.39323 4.65625 9.69531C5.07812 9.99219 5.6224 10.1406 6.28906 10.1406C6.7526 10.1406 7.21615 10.0885 7.67969 9.98438C8.14844 9.88021 8.65625 9.73177 9.20312 9.53906V11.5703C8.69792 11.7786 8.20052 11.9271 7.71094 12.0156C7.22135 12.1094 6.67188 12.1562 6.0625 12.1562C4.88542 12.1562 3.91667 11.9141 3.15625 11.4297C2.40104 10.9401 1.84115 10.2578 1.47656 9.38281C1.11198 8.5026 0.929688 7.47656 0.929688 6.30469C0.929688 5.4401 1.04688 4.64844 1.28125 3.92969C1.51562 3.21094 1.85938 2.58854 2.3125 2.0625C2.76562 1.53646 3.32552 1.13021 3.99219 0.84375C4.65885 0.557292 5.42448 0.414062 6.28906 0.414062C6.85677 0.414062 7.42448 0.486979 7.99219 0.632812C8.5651 0.773438 9.11198 0.96875 9.63281 1.21875L8.85156 3.1875C8.42448 2.98438 7.99479 2.80729 7.5625 2.65625C7.13021 2.50521 6.70573 2.42969 6.28906 2.42969ZM19.3906 7.61719C19.3906 8.34635 19.2917 8.99219 19.0938 9.55469C18.901 10.1172 18.6172 10.5938 18.2422 10.9844C17.8724 11.3698 17.4245 11.6615 16.8984 11.8594C16.3776 12.0573 15.7891 12.1562 15.1328 12.1562C14.5182 12.1562 13.9531 12.0573 13.4375 11.8594C12.9271 11.6615 12.4818 11.3698 12.1016 10.9844C11.7266 10.5938 11.4349 10.1172 11.2266 9.55469C11.0234 8.99219 10.9219 8.34635 10.9219 7.61719C10.9219 6.64844 11.0938 5.82812 11.4375 5.15625C11.7812 4.48438 12.2708 3.97396 12.9062 3.625C13.5417 3.27604 14.2995 3.10156 15.1797 3.10156C15.9974 3.10156 16.7214 3.27604 17.3516 3.625C17.987 3.97396 18.4844 4.48438 18.8438 5.15625C19.2083 5.82812 19.3906 6.64844 19.3906 7.61719ZM13.3516 7.61719C13.3516 8.1901 13.4141 8.67188 13.5391 9.0625C13.6641 9.45312 13.8594 9.7474 14.125 9.94531C14.3906 10.1432 14.737 10.2422 15.1641 10.2422C15.5859 10.2422 15.9271 10.1432 16.1875 9.94531C16.4531 9.7474 16.6458 9.45312 16.7656 9.0625C16.8906 8.67188 16.9531 8.1901 16.9531 7.61719C16.9531 7.03906 16.8906 6.5599 16.7656 6.17969C16.6458 5.79427 16.4531 5.50521 16.1875 5.3125C15.9219 5.11979 15.5755 5.02344 15.1484 5.02344C14.5182 5.02344 14.0599 5.23958 13.7734 5.67188C13.4922 6.10417 13.3516 6.7526 13.3516 7.61719ZM30.8906 15.1328H28.75V12H21.3594V3.26562H23.7422V10.2109H27.2266V3.26562H29.6172V10.2578H30.8906V15.1328ZM34.6797 3.26562V6.71875C34.6797 6.89583 34.6719 7.11979 34.6562 7.39062C34.6458 7.65625 34.6302 7.92708 34.6094 8.20312C34.5885 8.47917 34.5677 8.72656 34.5469 8.94531C34.526 9.16406 34.5104 9.3125 34.5 9.39062L38.5312 3.26562H41.3984V12H39.0938V8.51562C39.0938 8.22917 39.1042 7.91406 39.125 7.57031C39.1458 7.22135 39.1693 6.89323 39.1953 6.58594C39.2214 6.27865 39.2396 6.04688 39.25 5.89062L35.2344 12H32.375V3.26562H34.6797ZM47.4844 3.08594C48.6562 3.08594 49.5547 3.34115 50.1797 3.85156C50.8047 4.36198 51.1172 5.13802 51.1172 6.17969V12H49.4531L48.9922 10.8125H48.9297C48.6797 11.125 48.4245 11.3802 48.1641 11.5781C47.9036 11.776 47.6042 11.9219 47.2656 12.0156C46.9271 12.1094 46.5156 12.1562 46.0312 12.1562C45.5156 12.1562 45.0521 12.0573 44.6406 11.8594C44.2344 11.6615 43.9141 11.3594 43.6797 10.9531C43.4453 10.5417 43.3281 10.0208 43.3281 9.39062C43.3281 8.46354 43.6536 7.78125 44.3047 7.34375C44.9557 6.90104 45.9323 6.65625 47.2344 6.60938L48.75 6.5625V6.17969C48.75 5.72135 48.6302 5.38542 48.3906 5.17188C48.151 4.95833 47.8177 4.85156 47.3906 4.85156C46.9688 4.85156 46.5547 4.91146 46.1484 5.03125C45.7422 5.15104 45.3359 5.30208 44.9297 5.48438L44.1406 3.875C44.6042 3.63021 45.1224 3.4375 45.6953 3.29688C46.2734 3.15625 46.8698 3.08594 47.4844 3.08594ZM48.75 7.95312L47.8281 7.98438C47.0573 8.00521 46.5208 8.14323 46.2188 8.39844C45.9219 8.65365 45.7734 8.98958 45.7734 9.40625C45.7734 9.77083 45.8802 10.0312 46.0938 10.1875C46.3073 10.3385 46.5859 10.4141 46.9297 10.4141C47.4401 10.4141 47.8698 10.263 48.2188 9.96094C48.5729 9.65885 48.75 9.22917 48.75 8.67188V7.95312ZM61.3984 12H59.0156V5.05469H56.8203C56.7109 6.33594 56.5807 7.42708 56.4297 8.32812C56.2786 9.22917 56.0859 9.96354 55.8516 10.5312C55.6172 11.0938 55.3255 11.5052 54.9766 11.7656C54.6276 12.026 54.1979 12.1562 53.6875 12.1562C53.4062 12.1562 53.1536 12.1354 52.9297 12.0938C52.7109 12.0521 52.5104 11.9896 52.3281 11.9062V10C52.4427 10.0469 52.5651 10.0859 52.6953 10.1172C52.8255 10.1432 52.9583 10.1562 53.0938 10.1562C53.2448 10.1562 53.388 10.0964 53.5234 9.97656C53.6589 9.85677 53.7865 9.65104 53.9062 9.35938C54.026 9.0625 54.138 8.65365 54.2422 8.13281C54.3516 7.61198 54.4505 6.95312 54.5391 6.15625C54.6276 5.35938 54.7109 4.39583 54.7891 3.26562H61.3984V12ZM66.2891 6.64062H67.9688C68.8646 6.64062 69.6042 6.73438 70.1875 6.92188C70.7708 7.10938 71.2057 7.39583 71.4922 7.78125C71.7786 8.16146 71.9219 8.64062 71.9219 9.21875C71.9219 9.78125 71.7917 10.2708 71.5312 10.6875C71.2708 11.1042 70.8568 11.4271 70.2891 11.6562C69.7214 11.8854 68.9792 12 68.0625 12H63.9062V3.26562H66.2891V6.64062ZM69.5391 9.25C69.5391 8.91146 69.4036 8.66667 69.1328 8.51562C68.862 8.36458 68.4583 8.28906 67.9219 8.28906H66.2891V10.3516H67.9531C68.4167 10.3516 68.7969 10.2682 69.0938 10.1016C69.3906 9.92969 69.5391 9.64583 69.5391 9.25ZM76.1172 3.26562V6.625H79.4453V3.26562H81.8281V12H79.4453V8.39844H76.1172V12H73.7344V3.26562H76.1172ZM92.2656 7.61719C92.2656 8.34635 92.1667 8.99219 91.9688 9.55469C91.776 10.1172 91.4922 10.5938 91.1172 10.9844C90.7474 11.3698 90.2995 11.6615 89.7734 11.8594C89.2526 12.0573 88.6641 12.1562 88.0078 12.1562C87.3932 12.1562 86.8281 12.0573 86.3125 11.8594C85.8021 11.6615 85.3568 11.3698 84.9766 10.9844C84.6016 10.5938 84.3099 10.1172 84.1016 9.55469C83.8984 8.99219 83.7969 8.34635 83.7969 7.61719C83.7969 6.64844 83.9688 5.82812 84.3125 5.15625C84.6562 4.48438 85.1458 3.97396 85.7812 3.625C86.4167 3.27604 87.1745 3.10156 88.0547 3.10156C88.8724 3.10156 89.5964 3.27604 90.2266 3.625C90.862 3.97396 91.3594 4.48438 91.7188 5.15625C92.0833 5.82812 92.2656 6.64844 92.2656 7.61719ZM86.2266 7.61719C86.2266 8.1901 86.2891 8.67188 86.4141 9.0625C86.5391 9.45312 86.7344 9.7474 87 9.94531C87.2656 10.1432 87.612 10.2422 88.0391 10.2422C88.4609 10.2422 88.8021 10.1432 89.0625 9.94531C89.3281 9.7474 89.5208 9.45312 89.6406 9.0625C89.7656 8.67188 89.8281 8.1901 89.8281 7.61719C89.8281 7.03906 89.7656 6.5599 89.6406 6.17969C89.5208 5.79427 89.3281 5.50521 89.0625 5.3125C88.7969 5.11979 88.4505 5.02344 88.0234 5.02344C87.3932 5.02344 86.9349 5.23958 86.6484 5.67188C86.3672 6.10417 86.2266 6.7526 86.2266 7.61719ZM93.4609 8.6875V6.73438H97.6562V8.6875H93.4609ZM10.75 31H8L3.85938 25.2109V31H1.4375V19.5781H3.85938V25.1094L7.95312 19.5781H10.5312L6.36719 25.0625L10.75 31ZM16.8594 22.1016C17.8438 22.1016 18.638 22.4844 19.2422 23.25C19.8516 24.0156 20.1562 25.138 20.1562 26.6172C20.1562 27.6068 20.013 28.4401 19.7266 29.1172C19.4401 29.7891 19.0443 30.2969 18.5391 30.6406C18.0339 30.9844 17.4531 31.1562 16.7969 31.1562C16.375 31.1562 16.013 31.1042 15.7109 31C15.4089 30.8906 15.151 30.7526 14.9375 30.5859C14.724 30.4141 14.5391 30.2318 14.3828 30.0391H14.2578C14.2995 30.2474 14.3307 30.4609 14.3516 30.6797C14.3724 30.8984 14.3828 31.112 14.3828 31.3203V34.8438H12V22.2656H13.9375L14.2734 23.3984H14.3828C14.5391 23.1641 14.7292 22.9479 14.9531 22.75C15.1771 22.5521 15.4453 22.3958 15.7578 22.2812C16.0755 22.1615 16.4427 22.1016 16.8594 22.1016ZM16.0938 24.0078C15.6771 24.0078 15.3464 24.0938 15.1016 24.2656C14.8568 24.4375 14.6771 24.6953 14.5625 25.0391C14.4531 25.3828 14.3932 25.8177 14.3828 26.3438V26.6016C14.3828 27.1641 14.4349 27.6406 14.5391 28.0312C14.6484 28.4219 14.8281 28.7188 15.0781 28.9219C15.3333 29.125 15.6823 29.2266 16.125 29.2266C16.4896 29.2266 16.7891 29.125 17.0234 28.9219C17.2578 28.7188 17.4323 28.4219 17.5469 28.0312C17.6667 27.6354 17.7266 27.1536 17.7266 26.5859C17.7266 25.7318 17.5938 25.0885 17.3281 24.6562C17.0625 24.224 16.651 24.0078 16.0938 24.0078ZM25.7266 22.1016C26.5339 22.1016 27.2292 22.2578 27.8125 22.5703C28.3958 22.8776 28.8464 23.3255 29.1641 23.9141C29.4818 24.5026 29.6406 25.2214 29.6406 26.0703V27.2266H24.0078C24.0339 27.8984 24.2344 28.4271 24.6094 28.8125C24.9896 29.1927 25.5156 29.3828 26.1875 29.3828C26.7448 29.3828 27.2552 29.3255 27.7188 29.2109C28.1823 29.0964 28.6589 28.9245 29.1484 28.6953V30.5391C28.7161 30.7526 28.263 30.9089 27.7891 31.0078C27.3203 31.1068 26.75 31.1562 26.0781 31.1562C25.2031 31.1562 24.4271 30.9948 23.75 30.6719C23.0781 30.349 22.5495 29.8568 22.1641 29.1953C21.7839 28.5339 21.5938 27.7005 21.5938 26.6953C21.5938 25.6745 21.7656 24.8255 22.1094 24.1484C22.4583 23.4661 22.9427 22.9557 23.5625 22.6172C24.1823 22.2734 24.9036 22.1016 25.7266 22.1016ZM25.7422 23.7969C25.2786 23.7969 24.8932 23.9453 24.5859 24.2422C24.2839 24.5391 24.1094 25.0052 24.0625 25.6406H27.4062C27.401 25.2865 27.3359 24.9714 27.2109 24.6953C27.0911 24.4193 26.9089 24.2005 26.6641 24.0391C26.4245 23.8776 26.1172 23.7969 25.7422 23.7969ZM39.4297 22.2656V29.2578H40.7109V34.1328H38.5703V31H32.6953V34.1328H30.5547V29.2578H31.2891C31.6745 28.6693 31.9974 27.9974 32.2578 27.2422C32.5234 26.487 32.737 25.6875 32.8984 24.8438C33.0651 23.9948 33.1849 23.1354 33.2578 22.2656H39.4297ZM37.0469 24.0547H35.2578C35.1745 24.7005 35.0677 25.3255 34.9375 25.9297C34.8125 26.5286 34.6562 27.1068 34.4688 27.6641C34.2812 28.2161 34.0521 28.7474 33.7812 29.2578H37.0469V24.0547ZM44.5078 22.2656V25.7188C44.5078 25.8958 44.5 26.1198 44.4844 26.3906C44.474 26.6562 44.4583 26.9271 44.4375 27.2031C44.4167 27.4792 44.3958 27.7266 44.375 27.9453C44.3542 28.1641 44.3385 28.3125 44.3281 28.3906L48.3594 22.2656H51.2266V31H48.9219V27.5156C48.9219 27.2292 48.9323 26.9141 48.9531 26.5703C48.974 26.2214 48.9974 25.8932 49.0234 25.5859C49.0495 25.2786 49.0677 25.0469 49.0781 24.8906L45.0625 31H42.2031V22.2656H44.5078ZM60.9609 24.0547H58.1016V31H55.7188V24.0547H52.8516V22.2656H60.9609V24.0547ZM64.9766 22.2656V25.625H68.3047V22.2656H70.6875V31H68.3047V27.3984H64.9766V31H62.5938V22.2656H64.9766ZM76.7656 22.0859C77.9375 22.0859 78.8359 22.3411 79.4609 22.8516C80.0859 23.362 80.3984 24.138 80.3984 25.1797V31H78.7344L78.2734 29.8125H78.2109C77.9609 30.125 77.7057 30.3802 77.4453 30.5781C77.1849 30.776 76.8854 30.9219 76.5469 31.0156C76.2083 31.1094 75.7969 31.1562 75.3125 31.1562C74.7969 31.1562 74.3333 31.0573 73.9219 30.8594C73.5156 30.6615 73.1953 30.3594 72.9609 29.9531C72.7266 29.5417 72.6094 29.0208 72.6094 28.3906C72.6094 27.4635 72.9349 26.7812 73.5859 26.3438C74.237 25.901 75.2135 25.6562 76.5156 25.6094L78.0312 25.5625V25.1797C78.0312 24.7214 77.9115 24.3854 77.6719 24.1719C77.4323 23.9583 77.099 23.8516 76.6719 23.8516C76.25 23.8516 75.8359 23.9115 75.4297 24.0312C75.0234 24.151 74.6172 24.3021 74.2109 24.4844L73.4219 22.875C73.8854 22.6302 74.4036 22.4375 74.9766 22.2969C75.5547 22.1562 76.151 22.0859 76.7656 22.0859ZM78.0312 26.9531L77.1094 26.9844C76.3385 27.0052 75.8021 27.1432 75.5 27.3984C75.2031 27.6536 75.0547 27.9896 75.0547 28.4062C75.0547 28.7708 75.1615 29.0312 75.375 29.1875C75.5885 29.3385 75.8672 29.4141 76.2109 29.4141C76.7214 29.4141 77.151 29.263 77.5 28.9609C77.8542 28.6589 78.0312 28.2292 78.0312 27.6719V26.9531ZM84.1875 31H81.6094L83.9609 27.5469C83.6641 27.4219 83.3854 27.25 83.125 27.0312C82.8646 26.8073 82.6536 26.526 82.4922 26.1875C82.3307 25.849 82.25 25.4427 82.25 24.9688C82.25 24.099 82.5781 23.4323 83.2344 22.9688C83.8958 22.5 84.7474 22.2656 85.7891 22.2656H89.8516V31H87.4688V27.75H86.1562L84.1875 31ZM84.5859 24.9844C84.5859 25.349 84.7292 25.6354 85.0156 25.8438C85.3073 26.0469 85.6823 26.1484 86.1406 26.1484H87.4688V23.9453H85.8359C85.4089 23.9453 85.0938 24.0495 84.8906 24.2578C84.6875 24.4609 84.5859 24.7031 84.5859 24.9844ZM100.047 31.1562C99.1823 31.1562 98.4453 31 97.8359 30.6875C97.2266 30.3698 96.763 29.8802 96.4453 29.2188C96.1276 28.5573 95.9688 27.7109 95.9688 26.6797C95.9688 25.612 96.1484 24.7422 96.5078 24.0703C96.8724 23.3932 97.375 22.8958 98.0156 22.5781C98.6615 22.2604 99.4089 22.1016 100.258 22.1016C100.862 22.1016 101.383 22.1615 101.82 22.2812C102.263 22.3958 102.648 22.5339 102.977 22.6953L102.273 24.5391C101.898 24.388 101.549 24.2656 101.227 24.1719C100.904 24.0729 100.581 24.0234 100.258 24.0234C99.8411 24.0234 99.4948 24.1224 99.2188 24.3203C98.9427 24.513 98.737 24.8047 98.6016 25.1953C98.4661 25.5859 98.3984 26.0755 98.3984 26.6641C98.3984 27.2422 98.4714 27.7214 98.6172 28.1016C98.763 28.4818 98.974 28.7656 99.25 28.9531C99.526 29.1354 99.862 29.2266 100.258 29.2266C100.753 29.2266 101.193 29.1615 101.578 29.0312C101.964 28.8958 102.339 28.7083 102.703 28.4688V30.5078C102.339 30.737 101.956 30.901 101.555 31C101.159 31.1042 100.656 31.1562 100.047 31.1562ZM108.336 22.1016C109.143 22.1016 109.839 22.2578 110.422 22.5703C111.005 22.8776 111.456 23.3255 111.773 23.9141C112.091 24.5026 112.25 25.2214 112.25 26.0703V27.2266H106.617C106.643 27.8984 106.844 28.4271 107.219 28.8125C107.599 29.1927 108.125 29.3828 108.797 29.3828C109.354 29.3828 109.865 29.3255 110.328 29.2109C110.792 29.0964 111.268 28.9245 111.758 28.6953V30.5391C111.326 30.7526 110.872 30.9089 110.398 31.0078C109.93 31.1068 109.359 31.1562 108.688 31.1562C107.812 31.1562 107.036 30.9948 106.359 30.6719C105.688 30.349 105.159 29.8568 104.773 29.1953C104.393 28.5339 104.203 27.7005 104.203 26.6953C104.203 25.6745 104.375 24.8255 104.719 24.1484C105.068 23.4661 105.552 22.9557 106.172 22.6172C106.792 22.2734 107.513 22.1016 108.336 22.1016ZM108.352 23.7969C107.888 23.7969 107.503 23.9453 107.195 24.2422C106.893 24.5391 106.719 25.0052 106.672 25.6406H110.016C110.01 25.2865 109.945 24.9714 109.82 24.6953C109.701 24.4193 109.518 24.2005 109.273 24.0391C109.034 23.8776 108.727 23.7969 108.352 23.7969ZM121.414 24.0547H118.555V31H116.172V24.0547H113.305V22.2656H121.414V24.0547ZM125.43 25.6406H127.109C128.005 25.6406 128.745 25.7344 129.328 25.9219C129.911 26.1094 130.346 26.3958 130.633 26.7812C130.919 27.1615 131.062 27.6406 131.062 28.2188C131.062 28.7812 130.932 29.2708 130.672 29.6875C130.411 30.1042 129.997 30.4271 129.43 30.6562C128.862 30.8854 128.12 31 127.203 31H123.047V22.2656H125.43V25.6406ZM128.68 28.25C128.68 27.9115 128.544 27.6667 128.273 27.5156C128.003 27.3646 127.599 27.2891 127.062 27.2891H125.43V29.3516H127.094C127.557 29.3516 127.938 29.2682 128.234 29.1016C128.531 28.9297 128.68 28.6458 128.68 28.25Z" fill="#2C3136"/>
</svg>
