<svg width="52" height="46" viewBox="0 0 52 46" fill="none" xmlns="http://www.w3.org/2000/svg">
<path d="M38.9046 12.9885C37.3507 12.3656 36.9018 11.9889 36.9018 11.3087C36.9018 10.7644 37.314 10.1285 38.4764 10.1285C39.5046 10.1285 40.2931 10.5339 40.3001 10.5374C40.3831 10.5816 40.4762 10.6052 40.5683 10.6052C40.7933 10.6052 40.9924 10.4691 41.0749 10.2583L41.3573 9.53636C41.4556 9.27328 41.3064 9.04405 41.1162 8.96183C40.4832 8.68629 39.246 8.47304 39.2334 8.47085C39.2135 8.46733 39.1442 8.45252 39.1442 8.37148L39.1402 7.32414C39.1402 7.00873 38.8769 6.75195 38.5535 6.75195H38.0469C37.7238 6.75195 37.4606 7.00859 37.4606 7.32428L37.4619 8.42541C37.4619 8.50983 37.3705 8.54647 37.3371 8.55424C35.7754 8.92622 34.7995 10.0701 34.7995 11.5131C34.7995 13.3118 36.2863 14.1247 37.8918 14.7348C39.1753 15.2387 39.6988 15.7496 39.6988 16.499C39.6988 17.3145 38.9573 17.884 37.895 17.884C36.9879 17.884 35.7603 17.309 35.7482 17.3032C35.6696 17.266 35.5864 17.2472 35.5008 17.2472C35.2671 17.2472 35.0637 17.3885 34.9824 17.6073L34.7127 18.3375C34.6168 18.6101 34.7644 18.8314 34.9533 18.9299C35.7073 19.3225 37.1662 19.5526 37.2311 19.5627C37.2485 19.5652 37.3373 19.5965 37.3373 19.6777V20.7739C37.3373 21.0893 37.6007 21.3461 37.9242 21.3461H38.4477C38.7713 21.3461 39.0347 21.0895 39.0347 20.7739V19.6202C39.0347 19.5123 39.1143 19.5028 39.1307 19.4988C40.7943 19.1251 41.8191 17.9079 41.8191 16.3795C41.8187 14.8097 40.9469 13.7953 38.9046 12.9885Z" fill="#3E89F4"/>
<path d="M38.2503 0.298828C30.6559 0.298828 24.5 6.45521 24.5 14.0491C24.5 21.6431 30.6559 27.7996 38.2503 27.7996C45.8443 27.7996 52.0004 21.6431 52.0004 14.0491C52.0004 6.45521 45.8443 0.298828 38.2503 0.298828ZM38.2503 24.6129C32.4159 24.6129 27.6866 19.8832 27.6866 14.0492C27.6866 8.21529 32.4159 3.4857 38.2503 3.4857C44.0844 3.4857 48.8135 8.21529 48.8135 14.0492C48.8135 19.8832 44.0844 24.6129 38.2503 24.6129Z" fill="#3E89F4"/>
<path d="M49.2064 34.4626C46.2825 36.0764 42.2609 37.5686 38.2504 38.1976C34.6821 38.7572 27.9693 37.4076 27.9693 35.8138C27.9693 35.2098 33.8567 37.302 37.418 36.3518C40.149 35.6232 39.7613 33.0686 38.2759 32.7317C36.7991 32.3965 28.1472 29.2269 24.4516 29.1176C22.7107 29.0662 18.4128 29.723 16.333 30.0618C15.6206 30.1777 15.1739 30.1649 15.1293 30.8467C14.9224 34.0154 14.5145 40.4953 14.2921 43.88C14.2875 43.9515 14.3868 44.9133 15.1805 44.2364C16.0491 43.4957 17.2675 42.6747 18.3944 42.9303C20.1624 43.3314 35.4579 46.1336 37.5677 45.6432C40.5859 44.9416 49.1298 39.8783 50.7679 38.3045C53.3069 35.8646 51.3332 33.2888 49.2064 34.4626Z" fill="#3E89F4"/>
<path d="M10.9082 29.9382L2.89525 29.5434C2.27661 29.5129 1.64478 29.9791 1.49103 30.579L0.0340489 43.8071C-0.119549 44.4071 0.261222 44.9177 0.880158 44.9416L9.76042 44.9408C10.3795 44.9646 10.9244 44.4789 10.9719 43.8613L11.9471 31.1165C11.9943 30.499 11.5268 29.9687 10.9082 29.9382ZM6.19087 43.1883C4.96722 43.1883 3.97542 42.1964 3.97542 40.9728C3.97542 39.7492 4.96736 38.7574 6.19087 38.7574C7.41438 38.7574 8.40632 39.7493 8.40632 40.9728C8.40632 42.1965 7.41453 43.1883 6.19087 43.1883Z" fill="#3E89F4"/>
</svg>
