<svg width="27" height="28" viewBox="0 0 27 28" fill="none" xmlns="http://www.w3.org/2000/svg">
<path d="M25.9407 22.8503C25.2635 21.2785 24.2806 19.8508 23.0469 18.6467C21.8169 17.4392 20.3599 16.4764 18.7563 15.8116C18.742 15.8045 18.7276 15.801 18.7133 15.794C20.9501 14.2111 22.4042 11.6327 22.4042 8.72362C22.4042 3.90452 18.4188 0 13.5 0C8.58115 0 4.5958 3.90452 4.5958 8.72362C4.5958 11.6327 6.04992 14.2111 8.28674 15.7975C8.27238 15.8045 8.25801 15.808 8.24365 15.8151C6.63515 16.4799 5.19181 17.4332 3.95312 18.6503C2.72057 19.8553 1.73786 21.2827 1.05926 22.8538C0.3926 24.3918 0.0330566 26.0409 8.97816e-05 27.7116C-0.000868515 27.7491 0.00585282 27.7864 0.0198579 27.8214C0.033863 27.8564 0.0548684 27.8882 0.0816364 27.9151C0.108404 27.942 0.140393 27.9633 0.175718 27.9779C0.211044 27.9925 0.24899 28 0.287322 28H2.44156C2.59954 28 2.7252 27.8769 2.7288 27.7256C2.8006 25.01 3.91363 22.4668 5.88117 20.5392C7.91692 18.5447 10.6205 17.4472 13.5 17.4472C16.3795 17.4472 19.0831 18.5447 21.1188 20.5392C23.0864 22.4668 24.1994 25.01 24.2712 27.7256C24.2748 27.8804 24.4005 28 24.5584 28H26.7127C26.751 28 26.789 27.9925 26.8243 27.9779C26.8596 27.9633 26.8916 27.942 26.9184 27.9151C26.9451 27.8882 26.9661 27.8564 26.9801 27.8214C26.9941 27.7864 27.0009 27.7491 26.9999 27.7116C26.964 26.0301 26.6086 24.3945 25.9407 22.8503ZM13.5 14.7739C11.852 14.7739 10.301 14.1442 9.13407 13.001C7.96719 11.8578 7.32451 10.3382 7.32451 8.72362C7.32451 7.10905 7.96719 5.58945 9.13407 4.44623C10.301 3.30301 11.852 2.67337 13.5 2.67337C15.148 2.67337 16.699 3.30301 17.8659 4.44623C19.0328 5.58945 19.6755 7.10905 19.6755 8.72362C19.6755 10.3382 19.0328 11.8578 17.8659 13.001C16.699 14.1442 15.148 14.7739 13.5 14.7739Z" fill="#3E89F4"/>
</svg>
